<?xml version="1.0" encoding="UTF-8" standalone="no"?>
<svg
   xmlns:dc="http://purl.org/dc/elements/1.1/"
   xmlns:cc="http://creativecommons.org/ns#"
   xmlns:rdf="http://www.w3.org/1999/02/22-rdf-syntax-ns#"
   xmlns:svg="http://www.w3.org/2000/svg"
   xmlns="http://www.w3.org/2000/svg"
   xmlns:sodipodi="http://sodipodi.sourceforge.net/DTD/sodipodi-0.dtd"
   xmlns:inkscape="http://www.inkscape.org/namespaces/inkscape"
   width="155.2912mm"
   height="46.762024mm"
   viewBox="0 0 155.2912 46.762024"
   version="1.1"
   id="svg8"
   inkscape:version="1.0.2-2 (e86c870879, 2021-01-15)"
   sodipodi:docname="express_button.svg">
  <defs
     id="defs2">
    <rect
       x="78.803505"
       y="66.708267"
       width="93.54911"
       height="16.252975"
       id="rect903" />
    <rect
       x="80.508926"
       y="47.813988"
       width="105.24411"
       height="18.76911"
       id="rect897" />
    <filter
       id="filter1942"
       style="color-interpolation-filters:sRGB" />
    <filter
       id="filter2206"
       style="color-interpolation-filters:sRGB">
      <feFlood
         id="feFlood2196"
         flood-color="#000"
         flood-opacity=".498"
         result="flood" />
      <feComposite
         id="feComposite2198"
         in="flood"
         in2="SourceGraphic"
         operator="in"
         result="composite1" />
      <feGaussianBlur
         id="feGaussianBlur2200"
         in="composite1"
         result="blur"
         stdDeviation=".1" />
      <feOffset
         id="feOffset2202"
         dx=".898"
         dy="7.784"
         result="offset" />
      <feComposite
         id="feComposite2204"
         in="SourceGraphic"
         in2="offset"
         operator="over"
         result="composite2" />
    </filter>
  </defs>
  <sodipodi:namedview
     id="base"
     pagecolor="#4e4e4e"
     bordercolor="#666666"
     borderopacity="1.0"
     inkscape:pageopacity="0"
     inkscape:pageshadow="2"
     inkscape:zoom="0.98994949"
     inkscape:cx="163.44134"
     inkscape:cy="125.63235"
     inkscape:document-units="mm"
     inkscape:current-layer="layer1"
     inkscape:document-rotation="0"
     showgrid="false"
     inkscape:window-width="1920"
     inkscape:window-height="1017"
     inkscape:window-x="2152"
     inkscape:window-y="1230"
     inkscape:window-maximized="1"
     fit-margin-top="0"
     fit-margin-left="0"
     fit-margin-right="0"
     fit-margin-bottom="0"
     inkscape:pagecheckerboard="false" />
  <metadata
     id="metadata5">
    <rdf:RDF>
      <cc:Work
         rdf:about="">
        <dc:format>image/svg+xml</dc:format>
        <dc:type
           rdf:resource="http://purl.org/dc/dcmitype/StillImage" />
        <dc:title></dc:title>
      </cc:Work>
    </rdf:RDF>
  </metadata>
  <g
     inkscape:label="Layer 1"
     inkscape:groupmode="layer"
     id="layer1"
     transform="translate(-27.620772,-43.520766)">
    <rect
       style="fill:#000000;fill-opacity:0.554217;stroke:#919191;stroke-width:0.699;stroke-miterlimit:4;stroke-dasharray:none;stroke-opacity:1"
       id="rect833"
       width="154.59227"
       height="46.063103"
       x="27.970234"
       y="43.870228"
       ry="21.454046"
       rx="22.300598" />
    <g
       id="g1103"
       transform="matrix(0.40631222,0,0,0.40631222,72.358328,67.734233)">
      <g
         id="g1054">
        <g
           id="g1006"
           transform="matrix(0.26458333,0,0,0.26458333,-91.779043,-36.616704)">
          <g
             id="g12"
             transform="matrix(0.66216,0,0,0.9493,293.624,-1053.72)">
            <path
               id="path2"
               fill="#ffffff"
               d="m -268.57,1176.6 32.857,12.857 216.43,99.286 c 49.13,-43.735 -179.76,-27.857 -272.14,-45.714 l 22.857,-66.429 z" />
            <path
               id="path4"
               fill="#aeb7c7"
               d="m -264.79,1313.6 -12.5,-4.302 c -6.875,-2.366 -32.75,-10.86 -57.5,-18.878 -24.75,-8.017 -46.721,-15.445 -48.825,-16.507 -2.655,-1.34 -4.407,-3.213 -5.728,-6.122 -2.434,-5.362 -2.411,-6.18 0.248,-8.658 1.373,-1.28 1.84,-2.395 1.25,-2.982 -1.51,-1.497 -14.8,-6.933 -29.944,-12.248 -20.273,-7.114 -24.056,-9.652 -24.875,-16.692 -0.283,-2.43 0.483,-3.765 4.265,-7.43 2.535,-2.456 6.091,-5.211 7.901,-6.121 2.686,-1.35 113.75,-39.567 139.91,-48.146 10.282,-3.37 33.295,-6.579 33.295,-4.641 0,0.514 2.202,0.721 4.91,0.46 8.802,-0.845 10.864,-0.317 137.59,35.216 20.9,5.86 46.1,12.907 56,15.66 9.9,2.753 20.924,5.852 24.5,6.888 3.574,1.036 19.915,5.527 36.311,9.98 37.958,10.31 39.28,10.816 46.77,17.944 5.892,5.607 6.046,5.885 5.369,9.675 -0.384,2.147 -1.647,4.945 -2.808,6.217 -2.268,2.486 -2.732,2.718 -51.642,25.855 -17.875,8.456 -33.175,16.218 -34,17.249 -1.88,2.35 -5.369,4.076 -26.345,13.029 -32.59,13.91 -67.166,29.204 -68.107,30.125 l -136.05,-35.572 z m 246.71,-38.882 c 1.388,-2.171 -12.562,-7.236 -30.712,-11.149 -4.4,-0.949 -8.9,-2.077 -10,-2.506 -4.196,-1.64 -5.453,-1.848 -5.984,-0.989 -0.302,0.488 -0.07,1.184 0.516,1.546 0.75,0.463 0.74,1.05 -0.032,1.98 -1.288,1.552 0.33,3.032 2.112,1.93 0.611,-0.377 1.399,-0.246 1.75,0.292 0.35,0.538 7.364,3.213 15.586,5.944 12.66,4.206 15.797,4.897 20.5,4.516 3.054,-0.248 5.873,-0.951 6.264,-1.564 z m -234.21,-36.652 c 1.267,-0.847 1.064,-1.388 -1.306,-3.485 -3.512,-3.107 -7.92,-3.228 -10.655,-0.293 -3.576,3.838 -2.58,4.816 4.878,4.796 3.07,-0.01 6.258,-0.467 7.083,-1.018 z m -0.5,-14.05 c 0,-0.946 -1.136,-1.417 -3.417,-1.417 -4.195,0 -5.298,2.194 -1.392,2.77 3.853,0.569 4.809,0.3 4.809,-1.353 z m -1.434,-15.952 c 1.109,-0.594 1.934,-2.087 1.934,-3.5 0,-1.356 -0.113,-2.467 -0.25,-2.47 -0.138,0 -2.902,-0.44 -6.143,-0.971 -3.24,-0.531 -6.273,-0.73 -6.739,-0.443 -0.94,0.582 1.652,5.225 4.003,7.17 1.838,1.52 4.601,1.602 7.195,0.214 z m 1.734,-12.165 c 1.434,-1.434 1.59,-5.441 0.244,-6.273 -0.526,-0.325 -0.717,-1.217 -0.423,-1.982 0.638,-1.664 -2.98,-5.545 -5.17,-5.545 -0.853,0 -2.878,0.687 -4.5,1.526 -2.472,1.278 -2.949,2.13 -2.936,5.25 0.008,2.048 0.359,4.264 0.779,4.924 1.812,2.851 9.85,4.257 12.006,2.1 z m -8.55,-4.462 c -0.688,-0.278 -1.25,-1.367 -1.25,-2.421 0,-1.355 0.701,-1.917 2.393,-1.917 2.705,0 4.019,2.188 2.329,3.878 -1.2,1.2 -1.53,1.244 -3.472,0.46 z" />
            <path
               id="path6"
               fill="#747a86"
               d="m -257.4,1315.2 -36.334,-11.998 c -19.984,-6.599 -46.963,-15.44 -59.953,-19.646 -18.966,-6.142 -24.155,-8.208 -26.342,-10.49 -3.6,-3.757 -4,-9.1 -0.79,-10.521 4.866,-2.151 1.906,-5.143 -9.25,-9.348 -4.4,-1.659 -14.525,-5.307 -22.5,-8.107 -14.312,-5.025 -18.334,-7.063 -20.4,-10.339 -0.756,-1.199 -0.719,-2.007 0.131,-2.857 0.914,-0.914 2.97,-0.483 8.978,1.884 7.845,3.09 123.83,41.233 230.1,75.669 62.695,20.316 67.31,21.41 82.708,19.608 16.63,-1.947 27.894,-6.022 65.986,-23.871 56.533,-26.492 92.784,-43.16 93.862,-43.16 0.68,0 1.744,-0.508 2.364,-1.127 1.441,-1.441 6.273,-0.278 6.273,1.51 0,1.95 -6.09,5.834 -17.5,11.158 -5.5,2.566 -19.675,9.158 -31.5,14.65 -23.158,10.753 -35.307,17.035 -38.527,19.922 -1.114,0.999 -8.54,4.59 -16.5,7.979 -29.71,12.649 -71.738,31.29 -79.465,35.246 -10.39,5.318 -14.053,5.304 -30.008,-0.116 -6.6,-2.243 -13.688,-4.385 -15.75,-4.76 l -85.58,-31.286 z m 153.41,21.358 c 5.855,-2.446 3.376,-3.935 -4.964,-2.982 -8.49,0.971 -13.437,0.952 -19.992,-0.076 -6.79,-1.065 -5.838,1.39 1.461,3.767 6.313,2.056 17.7,1.713 23.494,-0.709 z m 47.426,-42.149 c -4.675,-1.363 -15.7,-4.683 -24.5,-7.378 -8.8,-2.696 -24.775,-7.423 -35.5,-10.504 -21.558,-6.195 -38,-11.432 -38,-12.104 0,-0.916 33.049,7.787 73,19.225 16.225,4.644 31.862,9.117 34.75,9.939 2.888,0.821 5.25,1.93 5.25,2.465 0,1.629 -6.05,0.966 -15,-1.643 z m 17,-6.626 c -9.717,-2.437 -84.333,-23.528 -96.5,-27.277 a 5286.41,5286.41 0 0 0 -32.943,-9.984 c -19.658,-5.885 -29.964,-9.423 -29.32,-10.068 0.585,-0.585 14.457,2.919 35.713,9.02 10.697,3.071 19.837,5.454 20.31,5.297 0.834,-0.278 -47.676,-14.813 -81.26,-24.348 -9.075,-2.577 -18.33,-5.52 -20.566,-6.542 -2.236,-1.022 -4.751,-1.857 -5.589,-1.857 -2.422,0 -17.448,4.898 -28.346,9.24 -10.135,4.039 -46.34,17.828 -58.807,22.398 -6.998,2.566 -11.466,2.546 -13.63,-0.062 -1.218,-1.468 -1.255,-1.452 30.436,-13.05 11,-4.026 27.875,-10.349 37.5,-14.05 l 17.5,-6.73 15,-0.32 15,-0.32 16.5,4.89 c 36.841,10.914 128.28,38.122 139.5,41.507 59.76,18.031 57.808,17.322 57.312,20.804 -0.286,2.01 -0.893,2.198 -7.312,2.26 -3.85,0.039 -8.575,-0.326 -10.5,-0.809 z m 32,-20.29 c -4.125,-1.383 -16.05,-5 -26.5,-8.04 -26.719,-7.77 -40.844,-12.091 -49.298,-15.083 -4.014,-1.42 -7.53,-2.35 -7.814,-2.067 -0.284,0.284 2.325,1.479 5.798,2.655 3.473,1.177 7.439,2.802 8.814,3.611 l 2.5,1.472 -3,-0.67 c -1.65,-0.369 -19.65,-6.244 -40,-13.057 -20.35,-6.813 -42.85,-14.125 -50,-16.25 -27.02,-8.026 -60.186,-17.041 -65,-17.667 -6.761,-0.88 -8.5,-1.928 -8.5,-5.125 0,-3.958 -2.996,-11.17 -6.628,-15.958 -2.775,-3.658 -3.36,-4.009 -4.466,-2.677 -0.7,0.843 -2.96,2.394 -5.023,3.447 -4.838,2.467 -6.883,5.47 -6.883,10.104 0,4.701 -0.873,5.205 -5.596,3.232 -3.178,-1.328 -4.478,-1.393 -7.856,-0.39 -6.247,1.856 -57.21,21.622 -84.795,32.887 -26.628,10.875 -29.205,11.446 -36.57,8.104 -5.138,-2.332 -17.183,-13.581 -17.183,-16.048 0,-2.07 -1.363,-1.491 23.5,-9.99 18.846,-6.44 75.489,-25.995 107.44,-37.09 l 14.436,-5.012 20.064,0.385 20.064,0.384 24,7.235 c 34.675,10.453 144.42,41.23 215,60.294 26.027,7.03 30.5,8.685 30.5,11.28 0,2.831 -13.37,13.778 -21.808,17.855 -10.552,5.099 -15.26,5.506 -25.192,2.178 z m -153.5,-4.468 c -1.26,-0.542 -1.445,-0.86 -0.5,-0.86 0.825,0 2.4,0.387 3.5,0.86 1.26,0.541 1.446,0.859 0.5,0.859 -0.825,0 -2.4,-0.387 -3.5,-0.86 z m -108.32,-22.667 c 0.487,-2.51 2.823,-2.854 2.823,-0.417 0,1.229 -0.645,2.084 -1.573,2.084 -0.928,0 -1.441,-0.68 -1.25,-1.667 z m 30.054,0.115 c -3.106,-2.175 -4.788,-5.448 -2.8,-5.448 1.395,0 7.57,5.274 7.57,6.466 0,1.057 -2.6,0.502 -4.77,-1.018 z" />
            <path
               id="path8"
               fill="#5b5b5a"
               d="m -257.74,1318.2 c -0.734,-0.6 -26.31,-9.283 -56.835,-19.293 -30.525,-10.01 -57.435,-18.901 -59.799,-19.756 -8.007,-2.896 -10.83,-10.164 -5.464,-14.072 5.073,-3.696 2.6,-5.003 -33.684,-17.809 -14.252,-5.03 -20.696,-9.072 -18.314,-11.487 0.992,-1.006 2.283,-0.824 6.5,0.917 6.233,2.574 45.899,15.723 128.76,42.685 33.275,10.827 83,27.025 110.5,35.995 27.5,8.97 51.238,16.59 52.75,16.936 3.477,0.793 3.593,2.589 0.166,2.589 -3.638,0 -2.634,2.091 2.138,4.453 5.618,2.78 19.499,3.354 26.323,1.087 2.804,-0.931 5.387,-2.159 5.738,-2.728 0.915,-1.48 -1.578,-2.779 -5.366,-2.797 -3.464,-0.016 -4.412,-1.535 -1.5,-2.401 0.963,-0.287 4.817,-1.217 8.565,-2.068 8.742,-1.985 22.83,-7.72 44.185,-17.988 9.35,-4.496 20.6,-9.687 25,-11.536 4.4,-1.85 16.695,-7.561 27.323,-12.692 10.628,-5.131 19.466,-9.33 19.641,-9.33 0.175,0 6.475,-2.925 13.998,-6.5 7.524,-3.575 14.458,-6.5 15.41,-6.5 1.831,0 4.128,1.816 4.128,3.265 0,0.476 -4.837,3.11 -10.75,5.853 -5.912,2.743 -13,6.037 -15.75,7.32 -23.035,10.746 -34.844,15.622 -35.452,14.638 -0.763,-1.235 -6.743,-0.379 -7.654,1.096 -0.311,0.503 -0.05,1.536 0.58,2.294 0.918,1.107 0.195,1.912 -3.665,4.076 -2.644,1.483 -6.72,3.982 -9.054,5.553 -4.2,2.826 -16.664,8.442 -29.254,13.18 -3.575,1.346 -9.65,4.025 -13.5,5.954 -3.85,1.93 -8.125,3.852 -9.5,4.272 -1.375,0.42 -5.875,2.321 -10,4.224 -4.125,1.903 -12.9,5.88 -19.5,8.838 -6.6,2.957 -14.651,6.74 -17.891,8.407 -3.363,1.73 -7.444,3.03 -9.51,3.03 -1.99,0 -11.036,-2.435 -20.1,-5.41 l -99.163,-34.297 z m 185.66,-26.811 c -3.85,-1.329 -5.468,-2.155 -3.596,-1.836 4.2,0.715 14.16,4.198 12.096,4.23 -0.825,0.012 -4.65,-1.065 -8.5,-2.394 z m 36.5,-3.01 c -55.261,-16.687 -131.24,-39.415 -147,-43.975 -56.116,-16.234 -64,-18.786 -64,-20.72 0,-0.604 3.026,-0.829 7.75,-0.577 5.972,0.318 13.714,2.201 33.75,8.21 14.3,4.29 54.575,16.326 89.5,26.747 96.175,28.697 94.582,28.163 93.391,31.267 -0.933,2.43 -2.573,2.314 -13.391,-0.952 z m -73.657,-17.91 c -23.993,-6.863 -35.675,-10.563 -35.115,-11.123 0.946,-0.946 57.811,15.412 59.689,17.17 1.17,1.096 -4.366,-0.266 -24.574,-6.046 z m 115.66,-1.313 c 0,-1.37 -2.984,-2.695 -13.75,-6.107 -24.428,-7.742 -40.732,-11.193 -41.533,-8.791 -0.562,1.687 -13.421,-1.671 -36.716,-9.588 -24.522,-8.334 -55.099,-17.683 -67.508,-20.642 -46.557,-11.101 -81.938,-20.417 -83.983,-22.114 -0.858,-0.712 -1.51,-2.881 -1.51,-5.023 0,-2.277 -0.544,-3.98 -1.374,-4.299 -0.87,-0.334 -1.644,-3.035 -2.106,-7.357 -0.401,-3.756 -1.39,-8.108 -2.198,-9.672 -1.769,-3.423 -1.554,-3.698 3.346,-4.283 4.532,-0.542 11.377,1.12 40.833,9.917 25.83,7.714 131.66,37.398 182.5,51.188 50.39,13.669 53.291,14.533 55.317,16.471 1.744,1.67 1.526,2.008 -5.472,8.488 -7.661,7.093 -12.1,9.824 -19.726,12.139 -5.886,1.786 -6.118,1.774 -6.12,-0.327 z m 46.065,-2.673 c -0.68,-0.819 -0.972,-1.917 -0.65,-2.439 0.927,-1.498 4.719,-0.063 4.384,1.659 -0.418,2.158 -2.27,2.545 -3.734,0.78 z m -401.06,-9.592 c -2.113,-1.387 -0.836,-2.085 13,-7.107 6.325,-2.296 22.3,-8.21 35.5,-13.144 13.2,-4.934 26.925,-10.032 30.5,-11.331 6.52,-2.369 14.417,-3.157 15.417,-1.538 0.294,0.476 -4.067,2.447 -9.691,4.381 -5.624,1.934 -23.276,8.56 -39.226,14.725 -42.159,16.296 -42.065,16.267 -45.5,14.013 z m -44.5,-16.984 c -1.65,-0.366 -4.562,-1.479 -6.47,-2.473 -4.723,-2.459 -15.03,-12.431 -15.03,-14.541 0,-1.355 8.032,-4.454 38.75,-14.951 21.312,-7.283 45.05,-15.234 52.75,-17.669 7.7,-2.435 16.25,-5.36 19,-6.5 12.912,-5.35 33.345,-11.858 37.25,-11.862 2.338,0 4.25,0.108 4.25,0.246 -10e-4,0.137 -0.774,3.625 -1.719,7.75 -0.944,4.125 -1.727,9.687 -1.739,12.36 l -0.021,4.862 -4.805,-0.57 c -2.643,-0.313 -5.798,-0.15 -7.01,0.361 -1.214,0.511 -15.075,5.86 -30.804,11.885 -15.729,6.025 -38.679,15.108 -51,20.183 -26.066,10.737 -29.363,11.814 -33.403,10.918 z" />
            <path
               id="path10"
               fill="#1b1b1c"
               d="m -368.23,1279.5 c -17.269,-5.478 -19.617,-6.697 -20.767,-10.788 -0.785,-2.795 -0.584,-3.516 1.475,-5.275 1.311,-1.12 2.384,-2.768 2.384,-3.661 0,-2.764 -5.232,-6.2 -13.032,-8.56 -51.993,-18.606 -8.892,-6.628 15.532,1.383 27.488,8.893 143.18,46.896 153.5,50.42 11.75,4.013 26.557,10.132 27.805,11.488 0.382,0.415 -0.866,0.457 -2.774,0.093 -11.398,-2.177 14.9,7.226 52.47,18.76 4.4,1.352 10.474,3.378 13.5,4.503 3.024,1.125 7.15,2.06 9.167,2.079 7.396,0.066 7.345,1.09 -0.261,5.217 -3.974,2.156 -8.339,4.797 -9.7,5.868 -4.415,3.472 -11.252,2.628 -29.77,-3.678 l -199.53,-67.85 z m 158.59,33.474 c -0.34,-0.55 -1.293,-1 -2.118,-1 -0.825,0 -1.222,0.45 -0.882,1 0.34,0.55 1.293,1 2.118,1 0.825,0 1.222,-0.45 0.882,-1 z m -113.65,-109.94 c 3.226,-2.073 9.153,-3.874 9.153,-2.78 0,0.291 -1.913,1.2 -4.25,2.018 l -6.25,2.2 c -1.1,0.392 -0.494,-0.255 1.347,-1.438 z" />
          </g>
          <g
             id="g998"
             style="filter:url(#filter2206)"
             transform="matrix(1.2514332,-1.0500771,1.0500771,1.2514332,20.187442,94.95918)">
            <path
               id="path875"
               d="m 111.9,56.2 c 11,6.2 9.1,17.1 9.1,17.1 0,0 -3.2,1.6 -8.1,1.3 -3.9,-0.3 -8.9,-1.8 -14,-6.6 -0.3,-2.5 -1.3,-4.7 -3,-6.5 -0.5,-0.5 -1.1,-1 -1.7,-1.4 7.4,0.2 13.3,-1.7 17.7,-3.9 z"
               class="st0" />
            <path
               id="path877"
               d="m 112.8,74.6 -0.1,2.1 c 1.1,4.6 -0.5,10.2 -4.6,14.3 -4.1,4.1 -10,5.4 -13.4,4.8 l -0.8,-0.3 c 1.5,-4.6 0.8,-9.3 -2.3,-12.4 l -0.2,-0.3 c 0.2,-0.2 0.5,-0.3 0.7,-0.5 0.1,0 0.1,-0.1 0.2,-0.1 0.6,-0.4 1.1,-0.9 1.7,-1.5 3.7,-3.7 5.4,-8.5 4.9,-12.7 5.1,4.8 10,6.3 13.9,6.6 z"
               class="st1" />
            <path
               id="path879"
               d="m 120.3,50.2 c 0,0 -2.9,3.3 -8.4,6 -4.3,2.2 -10.3,4.1 -17.8,3.9 C 90.8,58 86.5,57.9 82.4,59.5 l -0.1,-0.1 c 4.2,-5.5 4.6,-12.5 0,-17 23.8,-8.1 38,7.8 38,7.8 z"
               class="st2" />
            <path
               id="path881"
               d="m 94.1,60.2 c 0.6,0.4 1.2,0.8 1.7,1.4 1.8,1.8 2.7,4 3,6.5 0.5,4.2 -1.2,9 -4.9,12.7 -0.5,0.5 -1.1,1 -1.7,1.5 -0.1,0 -0.1,0.1 -0.2,0.1 -0.2,0.2 -0.5,0.3 -0.7,0.5 -4,2.8 -8.8,3.6 -12.7,2.3 -0.1,0 -0.1,-0.1 -0.2,-0.1 -8,-4.3 -7.7,-13.9 -3.6,-19.5 l -0.1,-0.1 c 2.4,-1 4.4,-2.5 5.7,-3.8 0.7,-0.7 1.3,-1.4 1.8,-2.1 l 0.1,0.1 c 4.2,-1.8 8.5,-1.6 11.8,0.5 z"
               class="st1" />
            <path
               id="path883"
               d="M 67.4,95.5 65,95.2 c 5.6,-0.8 10.7,-5.5 12.9,-9.5 l 0.4,-0.8 c 0.1,0 0.1,0.1 0.2,0.1 3.9,1.3 8.7,0.5 12.7,-2.3 l 0.2,0.3 c 3.1,3.1 3.9,7.9 2.3,12.4 -0.8,2.3 -2.2,4.7 -4.2,6.6 -3.3,3.3 -7.4,5 -11.2,5 -2.1,0 -4.2,-0.5 -5.9,-1.7 -4.5,-2.8 -5.3,-6.4 -5,-9.8 z"
               class="st1" />
            <path
               id="path885"
               d="m 82.3,42.5 c 4.6,4.6 4.1,11.5 0,17 -0.6,0.7 -1.2,1.5 -1.8,2.1 -1.3,1.3 -3.3,2.7 -5.7,3.8 -3.3,1.4 -7.2,2.1 -10.8,0.2 -0.9,-0.5 -1.8,-1.1 -2.7,-2 -3.2,-3.2 -4.7,-7.8 -2.6,-12.8 0.8,-2.1 2.3,-4.2 4.5,-6.4 0.5,-0.5 0.9,-0.9 1.4,-1.3 5.6,-4.5 12.9,-5 17.3,-1 0.2,0.1 0.3,0.2 0.4,0.4 z"
               class="st1" />
            <path
               id="path887"
               d="m 74.3,4.2 c 0,0 15.9,14.2 7.7,38 -4.4,-4 -11.8,-3.5 -17.3,1 1.6,-4 1.5,-8.4 -0.6,-11.6 l 0.2,-0.1 C 63.9,23.6 65.9,17.3 68.2,12.7 71,7.1 74.3,4.2 74.3,4.2 Z"
               class="st2" />
            <path
               id="path889"
               d="m 54.1,114.9 -0.9,0.5 c -3.7,11.1 -19.5,11.2 -23.3,3.5 v -0.1 c 0.5,-0.4 0.9,-0.8 1.3,-1.2 3.1,-3.1 4.4,-7.4 3.8,-11.6 l 0.4,-1.7 c 8.9,2.9 17.5,-6.1 21.3,-11.1 l 0.1,-0.1 c 2.8,1.9 5.7,2.4 8.5,2 l 2.4,0.2 c -0.4,3.4 0.5,7 5.1,10 1.7,1.1 3.8,1.6 5.9,1.7 v 0.1 c -4.3,10.4 -18,15.2 -24.6,7.8 z"
               class="st1" />
            <path
               id="path891"
               d="M 78.4,85 78,85.8 c -2.3,4 -7.3,8.6 -12.9,9.5 -2.8,0.4 -5.7,-0.1 -8.5,-2 -0.8,-0.5 -1.5,-1.1 -2.2,-1.9 -5.1,-5.1 -4,-12.3 -4,-12.3 l -0.1,-0.7 c 3.8,-0.8 7.5,-3 10.7,-6.2 l 3.1,-6.7 c 3.5,1.8 7.5,1.2 10.8,-0.2 l 0.1,0.1 c -4.3,5.7 -4.6,15.3 3.4,19.6 z"
               class="st1" />
            <path
               id="path893"
               d="m 64.1,31.5 c 2.1,3.3 2.2,7.6 0.6,11.6 -0.5,0.4 -1,0.8 -1.4,1.3 -2.2,2.2 -3.6,4.3 -4.5,6.4 h -0.1 c -4,3.1 -8.5,3.8 -12.5,2.6 C 44.9,53 43,52 42,51.1 41.9,51 41.7,50.9 41.6,50.8 37.5,46.7 37.5,39.9 41.2,34.4 c 0.6,-1 1.4,-1.9 2.2,-2.7 4,-4 9.3,-5.7 13.8,-4.7 2,0.4 3.9,1.3 5.4,2.8 0.7,0.5 1.1,1 1.5,1.7 z"
               class="st1" />
            <path
               id="path895"
               d="m 64.3,31.3 -0.2,0.1 c -0.4,-0.6 -0.9,-1.2 -1.4,-1.8 -1.5,-1.5 -3.3,-2.4 -5.4,-2.8 l 0.1,-0.3 C 54,23.1 52,19.7 50.9,16.6 48.3,9.1 51.1,3.4 51.1,3.4 c 0,0 10.8,-1.9 17.1,9 -2.3,4.7 -4.2,11 -3.9,18.9 z"
               class="st0" />
            <path
               id="path897"
               d="m 64,65.6 -3.1,6.7 c -3.1,3.1 -6.9,5.3 -10.7,6.2 -4.5,1 -9,0 -12.6,-3.6 -0.5,-0.5 -0.9,-1 -1.3,-1.5 -2.2,-3.1 -2.9,-7.1 -2.2,-10.6 0.1,-0.3 0.1,-0.6 0.2,-0.9 1.3,-4.5 5.4,-8.1 5.9,-8.5 L 42,51.3 c 1,0.9 2.8,1.9 4.1,2.3 4,1.2 8.5,0.5 12.5,-2.6 h 0.1 c -2.1,5 -0.6,9.6 2.6,12.8 0.9,0.7 1.8,1.3 2.7,1.8 z"
               class="st1" />
            <path
               id="path899"
               d="m 57.4,26.6 -0.1,0.3 c -4.5,-0.9 -9.8,0.7 -13.8,4.7 -0.9,0.9 -1.6,1.8 -2.2,2.7 -3.3,-1 -7.2,-0.4 -10.7,1.5 l -1,-1.2 c -0.6,-3.4 0.8,-9.4 4.8,-13.4 4.1,-4.1 9.7,-5.7 14.3,-4.6 l 2.2,0.1 c 1.1,3.1 3.1,6.4 6.5,9.9 z"
               class="st1" />
            <path
               id="path901"
               d="m 56.6,93.2 c -3.8,5.1 -12.4,14.1 -21.3,11.2 -2,-0.6 -4,-1.8 -5.9,-3.8 C 28.6,99.8 28,99 27.4,98.2 23,91.7 25,83.5 30,77.7 c 0.1,-0.1 0.2,-0.3 0.3,-0.4 l 6,-4 c 0.4,0.5 0.8,1.1 1.3,1.5 3.6,3.6 8.1,4.6 12.6,3.6 l 0.1,0.7 c 0,0 -1.1,7.2 4,12.3 0.8,0.7 1.5,1.3 2.3,1.8 z"
               class="st1" />
            <path
               id="path903"
               d="m 42,51.1 -1.8,2.1 c -0.5,0.5 -4.6,4.1 -5.9,8.5 l -2,-0.6 c -2.7,-0.2 -5.9,-1.4 -8.3,-3.9 -1.3,-1.5 -2,-3.4 -2.3,-5.4 -0.6,-4.3 1.1,-9.2 4.9,-13 1.2,-1.2 2.6,-2.2 4,-3 3.5,-1.9 7.4,-2.5 10.7,-1.5 -3.7,5.5 -3.7,12.4 0.4,16.4 0.1,0.2 0.2,0.3 0.3,0.4 z"
               class="st1" />
            <path
               id="path905"
               d="m 36.3,73.3 -6,4 c -0.1,0.1 -0.2,0.3 -0.3,0.4 L 29.9,77.6 C 24.6,80.9 18,79.9 14,75.8 8.6,70.4 9.2,61.8 15.7,56 c 1.6,-1.5 4.4,-3.2 6.1,-4.2 h 0.1 c 0.3,2 1,3.9 2.3,5.4 2.4,2.5 5.6,3.7 8.3,3.9 l 2,0.6 c -0.1,0.3 -0.2,0.6 -0.2,0.9 -0.9,3.6 -0.2,7.6 2,10.7 z"
               class="st1" />
            <path
               id="path907"
               d="m 35.2,104.4 -0.4,1.7 c 0.6,4.2 -0.7,8.5 -3.8,11.6 -0.4,0.4 -0.8,0.8 -1.3,1.2 -5.4,4.5 -14.2,6.3 -20.2,0.3 C 4,113.7 5.4,104.1 9.3,98.5 l 0.4,-0.9 c 0.5,0.6 1,1.1 1.7,1.6 6,5 12.4,1.7 15.1,-0.9 l 0.8,-0.1 c 0.6,0.8 1.2,1.6 2,2.4 2,2 3.9,3.2 5.9,3.8 z"
               class="st1" />
            <path
               id="path909"
               d="m 29.8,77.6 0.1,0.1 c -5,5.8 -7,14 -2.6,20.5 l -0.8,0.1 c -2.6,2.6 -9.1,5.9 -15.1,0.9 C 10.8,98.7 10.2,98.1 9.7,97.6 5.6,92.8 5.7,85.9 9.1,81 l 4.7,-5.2 c 4.2,4.1 10.8,5 16,1.8 z"
               class="st1" />
            <path
               id="path911"
               d="m 64.7,43.1 c 1.6,-4 1.5,-8.4 -0.6,-11.6 -0.4,-0.6 -0.9,-1.2 -1.4,-1.8 -1.5,-1.5 -3.3,-2.4 -5.4,-2.8 -4.5,-0.9 -9.8,0.7 -13.8,4.7 -0.9,0.9 -1.6,1.8 -2.2,2.7 -3.7,5.5 -3.7,12.4 0.4,16.4 0.1,0.1 0.2,0.2 0.4,0.3 1,0.9 2.8,1.9 4.1,2.3 4,1.2 8.5,0.5 12.5,-2.6"
               class="st3" />
            <path
               id="path913"
               d="m 48.7,16.6 c -4.6,-1.1 -10.2,0.5 -14.3,4.6 -4,4.1 -5.4,10 -4.8,13.4"
               class="st3" />
            <path
               id="path915"
               d="M 94.6,95.8 C 98,96.4 104,95 108,91 c 4.1,-4.1 5.7,-9.7 4.6,-14.3"
               class="st3" />
            <path
               id="path917"
               d="m 82.4,59.6 c 4.1,-1.7 8.4,-1.5 11.7,0.6 0.6,0.4 1.2,0.8 1.7,1.4 1.8,1.8 2.7,4 3,6.5 0.5,4.2 -1.2,9 -4.9,12.7 -0.5,0.5 -1.1,1 -1.7,1.5 -0.1,0 -0.1,0.1 -0.2,0.1 -0.2,0.2 -0.5,0.3 -0.7,0.5 -4,2.8 -8.8,3.6 -12.7,2.3 -0.1,0 -0.1,-0.1 -0.2,-0.1 -8,-4.3 -7.7,-13.9 -3.6,-19.5"
               class="st3" />
            <path
               id="path919"
               d="m 67.5,95.2 v 0.3 c -0.4,3.4 0.5,7 5.1,10 1.7,1.1 3.8,1.6 5.9,1.7 3.8,0 8,-1.7 11.2,-5 2,-2 3.4,-4.3 4.2,-6.6 1.5,-4.6 0.8,-9.3 -2.3,-12.4"
               class="st3" />
            <path
               id="path921"
               d="m 32.4,61.1 c -2.7,-0.2 -5.9,-1.4 -8.3,-3.9 -1.3,-1.5 -2,-3.4 -2.3,-5.4 -0.6,-4.3 1.1,-9.2 4.9,-13 1.2,-1.2 2.6,-2.2 4,-3 3.5,-1.9 7.4,-2.5 10.7,-1.5"
               class="st3" />
            <path
               id="path923"
               d="M 29.8,77.6 C 24.5,80.9 17.9,79.9 13.9,75.8 8.5,70.4 9.1,61.8 15.6,56 17.2,54.5 20,52.8 21.7,51.8"
               class="st3" />
            <path
               id="path925"
               d="m 56.5,93.3 c -3.8,5 -12.3,14 -21.3,11.1 -2,-0.6 -4,-1.8 -5.9,-3.8 C 28.5,99.8 27.9,99 27.3,98.2 23,91.7 25,83.5 30,77.7 c 0.1,-0.1 0.2,-0.3 0.3,-0.4"
               class="st3" />
            <path
               id="path927"
               d="m 9.2,81 c -3.4,4.9 -3.5,11.8 0.6,16.6 0.5,0.6 1,1.1 1.7,1.6 6,5 12.4,1.7 15.1,-0.9"
               class="st3" />
            <path
               id="path929"
               d="m 9.4,98.5 c -3.9,5.5 -5.3,15.2 0.2,20.7 6,6 14.8,4.2 20.2,-0.3 0.5,-0.4 0.9,-0.8 1.3,-1.2 3.1,-3.1 4.4,-7.4 3.8,-11.6"
               class="st3" />
            <path
               id="path931"
               d="m 53.2,115.4 c -3.7,11.1 -19.5,11.2 -23.3,3.5"
               class="st3" />
            <path
               id="path933"
               d="m 51,109 c 0.6,2.5 1.7,4.4 3,5.9 6.7,7.3 20.3,2.6 24.4,-7.8"
               class="st3" />
            <path
               id="path935"
               d="m 78,85.8 c -2.3,4 -7.3,8.6 -12.9,9.5 -2.8,0.4 -5.7,-0.1 -8.5,-2 -0.8,-0.5 -1.5,-1.1 -2.2,-1.9 -5.1,-5.1 -4,-12.3 -4,-12.3"
               class="st3" />
            <path
               id="path937"
               d="m 40.2,53.2 c -0.5,0.5 -4.6,4.1 -5.9,8.5 -0.1,0.3 -0.2,0.6 -0.2,0.9 -0.7,3.5 0,7.5 2.2,10.6 0.4,0.5 0.8,1.1 1.3,1.5 3.6,3.6 8.1,4.6 12.6,3.6 3.8,-0.8 7.5,-3 10.7,-6.2"
               class="st3" />
            <path
               id="path939"
               d="m 82.3,59.5 c -0.6,0.7 -1.2,1.5 -1.8,2.1 -1.3,1.3 -3.3,2.7 -5.7,3.8 -3.3,1.4 -7.2,2.1 -10.8,0.2 -0.9,-0.5 -1.8,-1.1 -2.7,-2 -3.2,-3.2 -4.7,-7.8 -2.6,-12.8 0.8,-2.1 2.3,-4.2 4.5,-6.4 0.5,-0.5 0.9,-0.9 1.4,-1.3 5.6,-4.5 12.9,-5 17.3,-1 l 0.3,0.3 c 4.7,4.6 4.2,11.5 0.1,17.1 z"
               class="st3" />
            <path
               id="path941"
               d="m 111.9,56.2 c 11,6.2 9.1,17.1 9.1,17.1 0,0 -3.2,1.6 -8.1,1.3 C 109,74.3 104,72.8 98.9,68"
               class="st3" />
            <path
               id="path943"
               d="m 82.3,42.5 c 23.7,-8.2 38,7.7 38,7.7 0,0 -2.9,3.3 -8.4,6 -4.3,2.2 -10.3,4.1 -17.8,3.9"
               class="st3" />
            <path
               id="path945"
               d="m 68.2,12.6 c -6.2,-11 -17.1,-9 -17.1,-9 0,0 -2.9,5.6 -0.2,13.2 1.1,3.1 3,6.4 6.5,9.9"
               class="st3" />
            <path
               id="path947"
               d="m 82,42.1 c 8.2,-23.7 -7.7,-38 -7.7,-38 0,0 -3.3,2.9 -6,8.4 C 66,17 64,23.3 64.4,31.3"
               class="st3" />
            <path
               id="path949"
               d="m 88.2,36.4 c 0,0 11.9,-8 11.2,-20.3"
               class="st3" />
          </g>
        </g>
      </g>
    </g>
    <text
       xml:space="preserve"
       id="text895"
       style="font-style:normal;font-variant:normal;font-weight:normal;font-stretch:normal;font-size:12.7px;line-height:1.25;font-family:'DM Sans';-inkscape-font-specification:'DM Sans, @OpticalSize=27.6,wght=400';font-variant-ligatures:normal;font-variant-caps:normal;font-variant-numeric:normal;font-variant-east-asian:normal;font-variation-settings:'Size' 27.60000000000000142, 'wght' 400;letter-spacing:0px;white-space:pre;shape-inside:url(#rect897);"
       transform="translate(-2.1544643,4.0065478)"><tspan
         x="80.509766"
         y="59.078143"><tspan
           style="font-style:normal;font-variant:normal;font-weight:normal;font-stretch:normal;font-size:12.7px;font-family:'DM Sans';-inkscape-font-specification:'DM Sans, @OpticalSize=9.0,wght=684';font-variant-ligatures:normal;font-variant-caps:normal;font-variant-numeric:normal;font-variant-east-asian:normal;font-variation-settings:'Size' 9, 'wght' 684;fill:#ffffff;fill-opacity:1">Express Install</tspan></tspan></text>
    <text
       xml:space="preserve"
       id="text901"
       style="font-size:9.87778px;line-height:1.25;font-family:'DM Sans';-inkscape-font-specification:'DM Sans';white-space:pre;shape-inside:url(#rect903);"
       transform="translate(2.6458334,2.1166667)"><tspan
         x="78.802734"
         y="75.469634"><tspan
           style="font-style:normal;font-variant:normal;font-weight:normal;font-stretch:normal;font-size:9.87778px;font-family:'DM Sans';-inkscape-font-specification:'DM Sans, @OpticalSize=9.0,wght=314';font-variant-ligatures:normal;font-variant-caps:normal;font-variant-numeric:normal;font-variant-east-asian:normal;font-variation-settings:'Size' 9, 'wght' 314;fill:#ffffff;fill-opacity:1">with Pi-Tray Editor</tspan></tspan></text>
  </g>
  <style
     id="style845"
     type="text/css">.st0{fill:#388e3c}.st1{fill:#ff4081}.st2{fill:#4caf50}.st3{fill:none;stroke:#31352e;stroke-width:6;stroke-linecap:round;stroke-linejoin:round;stroke-miterlimit:10}</style>
</svg>
